HIERARCHY
ROOT root
{
	OFFSET 0.000000 0.000000 0.000000
	CHANNELS 6 Xposition Yposition Zposition Zrotation Yrotation Xrotation
	JOINT lhip
	{
		OFFSET 0.058581 -0.082280 -0.017664
		CHANNELS 3 Zrotation Yrotation Xrotation
		JOINT lknee
		{
			OFFSET 0.043451 -0.386469 0.008037
			CHANNELS 3 Zrotation Yrotation Xrotation
			JOINT lankle
			{
				OFFSET -0.014790 -0.426874 -0.037428
				CHANNELS 3 Zrotation Yrotation Xrotation
				JOINT ltoe
				{
					OFFSET 0.041054 -0.060286 0.122042
					CHANNELS 3 Zrotation Yrotation Xrotation
					End Site
					{
						OFFSET 0.000000 0.000000 0.000000
					}
				}
			}
		}
	}
	JOINT rhip
	{
		OFFSET -0.060310 -0.090513 -0.013543
		CHANNELS 3 Zrotation Yrotation Xrotation
		JOINT rknee
		{
			OFFSET -0.043257 -0.383688 -0.004843
			CHANNELS 3 Zrotation Yrotation Xrotation
			JOINT rankle
			{
				OFFSET 0.019056 -0.420046 -0.034562
				CHANNELS 3 Zrotation Yrotation Xrotation
				JOINT rtoe
				{
					OFFSET -0.034840 -0.062106 0.130323
					CHANNELS 3 Zrotation Yrotation Xrotation
					End Site
					{
						OFFSET 0.000000 0.000000 0.000000
					}
				}
			}
		}
	}
	JOINT lowerback
	{
		OFFSET 0.004439 0.124404 -0.038385
		CHANNELS 3 Zrotation Yrotation Xrotation
		JOINT upperback
		{
			OFFSET 0.004488 0.137956 0.026820
			CHANNELS 3 Zrotation Yrotation Xrotation
			JOINT chest
			{
				OFFSET -0.002265 0.056032 0.002855
				CHANNELS 3 Zrotation Yrotation Xrotation
				JOINT lowerneck
				{
					OFFSET -0.013390 0.211636 -0.033468
					CHANNELS 3 Zrotation Yrotation Xrotation
					JOINT upperneck
					{
						OFFSET 0.010113 0.088937 0.050410
						CHANNELS 3 Zrotation Yrotation Xrotation
						End Site
						{
							OFFSET 0.000000 0.000000 0.000000
						}
					}
				}
				JOINT lclavicle
				{
					OFFSET 0.071702 0.114000 -0.018898
					CHANNELS 3 Zrotation Yrotation Xrotation
					JOINT lshoulder
					{
						OFFSET 0.122921 0.045205 -0.019046
						CHANNELS 3 Zrotation Yrotation Xrotation
						JOINT lelbow
						{
							OFFSET 0.255332 -0.015649 -0.022946
							CHANNELS 3 Zrotation Yrotation Xrotation
							JOINT lwrist
							{
								OFFSET 0.265709 0.012698 -0.007375
								CHANNELS 3 Zrotation Yrotation Xrotation
								End Site
								{
									OFFSET 0.000000 0.000000 0.000000
								}
							}
						}
					}
				}
				JOINT rclavicle
				{
					OFFSET -0.082954 0.112472 -0.023707
					CHANNELS 3 Zrotation Yrotation Xrotation
					JOINT rshoulder
					{
						OFFSET -0.113228 0.046853 -0.008472
						CHANNELS 3 Zrotation Yrotation Xrotation
						JOINT relbow
						{
							OFFSET -0.260127 -0.014369 -0.031269
							CHANNELS 3 Zrotation Yrotation Xrotation
							JOINT rwrist
							{
								OFFSET -0.269108 0.006794 -0.006027
								CHANNELS 3 Zrotation Yrotation Xrotation
								End Site
								{
									OFFSET 0.000000 0.000000 0.000000
								}
							}
						}
					}
				}
			}
		}
	}
}
MOTION
Frames: 15
Frame Time: 0.033333
0.948288 0.630292 0.709733 62.001771 -21.195184 88.031452 17.985765 1.790192 -49.855335 -8.940168 5.634517 93.589434 -5.418448 4.408207 -22.119708 0.000000 -0.000000 0.000000 -10.314576 -3.980213 -71.558325 -10.484522 -13.093293 104.385109 -6.805266 -24.229967 -29.249193 0.000000 -0.000000 0.000000 5.366523 -11.715624 69.917964 -3.510394 6.116312 -8.218910 2.220031 2.738491 -2.494194 -15.225610 -17.357626 -2.564625 3.177226 4.340253 -12.821286 -21.514712 -27.441238 -4.896418 -39.861667 -18.457813 12.133057 96.081627 -78.401244 -64.409981 20.711099 -15.953478 -4.110428 0.984062 38.929323 -1.247741 1.183924 8.898988 -18.560948 -17.415005 25.938122 -22.906928 -21.140477 8.683277 7.347441 
1.056520 0.620052 0.697291 57.232391 -23.413908 96.258583 19.441394 2.251799 -57.132365 -10.452921 -1.495126 69.280004 -2.687697 10.420473 -19.729792 0.000000 -0.000000 0.000000 -13.505584 -5.253527 -76.112677 -7.588505 -9.249418 112.579629 -3.460011 -23.614881 -34.831488 0.000000 -0.000000 0.000000 4.973112 -10.528624 72.418933 -5.126620 5.568490 -10.776559 2.529019 2.314035 -2.318363 -13.931188 -18.811431 -4.171762 6.050761 3.888026 -16.268010 -18.960964 -31.334215 -5.499970 -37.852700 -21.405723 11.313984 91.913371 -76.683166 -62.822477 23.866926 -13.679760 -7.992191 -5.248943 41.042981 -3.596170 0.416017 8.320288 -20.593724 -18.469994 25.188700 -25.487624 -21.438148 9.028399 7.974546 
1.147663 0.606394 0.690140 51.827575 -23.596416 103.181251 23.195399 -0.485062 -54.561355 -10.396436 -10.382745 52.330620 -4.236921 12.376692 -10.629578 0.000000 -0.000000 0.000000 -16.188348 -7.235258 -78.398265 -7.048765 -8.408324 117.860827 -2.006794 -22.675941 -36.047794 0.000000 -0.000000 0.000000 4.765276 -9.775455 73.834027 -6.017938 4.901410 -10.380451 2.558580 1.373969 -3.834315 -13.097207 -16.703498 -6.427472 6.582493 3.417694 -18.142107 -17.682115 -35.927890 -5.965604 -34.941016 -25.101370 10.702258 84.223624 -73.763060 -53.994190 23.560063 -15.306445 -5.034896 -8.237536 44.712713 -5.792769 -3.086223 9.247023 -21.382131 -15.952088 22.056503 -21.087166 -20.802288 9.237742 10.568210 
1.246198 0.590242 0.678377 44.534660 -21.343152 109.953028 24.908296 -1.388692 -49.550925 -8.989588 -14.994316 53.446984 -10.344526 12.311771 -21.576343 0.000000 -0.000000 0.000000 -17.497345 -7.988958 -80.579197 -6.955859 -6.822727 122.387927 0.563329 -20.876944 -35.260642 0.000000 -0.000000 0.000000 4.616788 -8.582955 74.341737 -6.581286 4.632005 -9.700531 2.757034 0.472189 -4.912398 -12.058119 -13.419729 -8.535994 5.816016 3.286673 -18.945691 -15.440921 -41.780173 -6.594599 -31.012846 -28.365960 7.656087 76.485151 -70.166302 -45.500127 23.363561 -16.919980 -0.019877 -10.197867 48.715065 -9.451397 -4.851610 13.601993 -22.736566 -13.170868 19.445778 -19.469504 -24.113214 8.463535 8.891619 
1.341400 0.572865 0.664041 38.530755 -17.260934 117.534123 25.246841 3.114535 -49.634441 -6.605696 -9.557496 61.823742 -9.207289 12.326192 -32.457799 0.000000 -0.000000 0.000000 -17.124377 -7.635165 -82.848593 -6.235790 -5.297897 124.263297 2.012056 -20.205844 -34.076969 0.000000 -0.000000 0.000000 4.175127 -6.983525 74.479811 -5.743008 4.589218 -12.101686 4.273617 -0.095740 -4.037570 -11.326753 -9.258833 -11.822073 5.077497 3.422475 -19.165530 -9.122507 -45.637842 -9.391562 -25.874518 -31.867334 0.291466 70.438610 -68.494579 -41.080758 26.456223 -18.367742 0.717226 -12.516290 49.650501 -13.317297 -0.732518 21.169842 -21.827813 -16.749327 22.160582 -17.877751 -44.135456 14.878924 14.729655 
1.431796 0.548420 0.655136 36.877445 -14.775049 124.717227 23.954312 5.166115 -52.790698 -7.017366 -9.156991 68.823185 -8.009474 10.047767 -38.624162 0.000000 -0.000000 0.000000 -17.348684 -8.714198 -82.013567 -7.098938 -4.252364 122.786553 1.421948 -23.584952 -33.070399 0.000000 -0.000000 0.000000 4.719592 -6.614598 74.054630 -1.591629 1.475854 -13.198325 6.556982 -1.288207 -3.965339 -10.665669 -3.245961 -14.856208 4.769492 4.482933 -21.097086 0.065744 -47.071615 -13.802011 -15.284703 -30.677492 -10.592377 72.234022 -67.198832 -44.043758 27.257015 -19.190737 1.485707 -10.902516 48.864429 -13.070826 5.597550 25.638925 -20.367572 -30.647810 36.324631 -20.016894 -46.448127 17.314891 18.664219 
1.523018 0.516666 0.647375 34.516695 -12.271744 132.129641 23.812399 3.761492 -54.153737 -9.706111 -8.786257 74.293386 -8.848024 8.766045 -41.857032 0.000000 -0.000000 0.000000 -18.272076 -8.272441 -80.328354 -7.295759 -4.360873 119.845199 -0.283222 -24.944102 -30.892658 0.000000 -0.000000 0.000000 3.703951 -8.320484 74.471991 2.649206 -2.434010 -14.326243 7.421432 -2.117124 -4.255984 -10.313658 4.805708 -19.584925 3.278933 4.378093 -19.467273 7.608230 -41.661798 -18.913580 -4.690101 -25.230016 -16.681520 74.279692 -66.675723 -48.883573 27.281145 -20.014158 2.322929 -5.380447 46.509394 -14.990048 10.406259 34.086537 -13.979124 -35.015659 48.365981 -17.775701 -41.318119 17.806737 20.331693 
1.615253 0.480112 0.638706 29.226203 -7.415345 140.816181 22.183613 2.685427 -53.595028 -8.758163 -7.334689 77.267863 -8.433582 9.322238 -42.532454 0.000000 -0.000000 0.000000 -17.347639 -5.636707 -80.247676 -5.846161 -4.919386 116.265249 -0.960560 -21.926746 -28.936628 0.000000 -0.000000 0.000000 2.636399 -7.151549 72.387550 4.245806 -2.772362 -14.566506 8.209430 -1.653493 -3.678268 -9.824632 10.219927 -20.497692 2.256277 3.077245 -21.699363 12.740795 -38.295916 -20.849372 1.089113 -20.422761 -19.973068 78.808237 -65.866034 -55.390636 22.725280 -20.887715 3.278052 -5.975322 44.193106 -15.723748 17.828006 35.406366 -8.201325 -47.582077 55.509207 -25.613606 -41.261531 19.136506 19.731261 
1.710943 0.440020 0.625373 23.773950 -0.352145 149.294295 19.360140 0.371289 -52.181557 -5.885726 -6.212849 78.480217 -6.499744 11.745321 -41.480960 0.000000 -0.000000 0.000000 -15.325552 -4.411722 -79.202629 -6.850926 -7.001382 111.011122 -1.621401 -23.863499 -26.749575 0.000000 -0.000000 0.000000 2.615448 -6.069079 68.695602 4.067335 -1.615879 -15.062102 8.010559 -0.568898 -2.375046 -8.821077 11.706577 -20.297397 2.765683 3.312635 -21.980921 13.952290 -34.550911 -21.278435 0.761502 -20.889474 -20.933646 88.780645 -66.471910 -64.841509 23.415893 -21.025843 5.894744 -3.772410 41.112984 -14.061347 22.900249 34.639530 -4.698627 -59.149334 61.369543 -33.597585 -40.854055 21.742954 19.611913 
1.812774 0.394345 0.601965 18.791535 8.227618 155.980573 15.832628 -4.378785 -49.236161 -3.938760 -5.660326 78.263373 -3.641037 14.638510 -40.019610 0.000000 -0.000000 0.000000 -13.657337 -5.655471 -75.140676 -8.945334 -10.145197 104.160855 -1.029116 -22.826733 -25.143625 0.000000 -0.000000 0.000000 3.764858 -4.575009 65.656460 3.529214 0.303475 -15.605063 7.898426 0.469660 -1.249726 -8.296624 11.139798 -19.997191 2.397701 3.344956 -21.045906 11.923899 -31.673993 -20.076951 -4.439438 -23.626034 -18.523832 104.693055 -66.567413 -78.441495 25.483137 -22.445204 4.431636 -0.958561 37.833239 -12.176163 24.641502 32.311415 -2.908274 -68.847491 66.256080 -41.687871 -40.650302 24.697841 18.210633 
1.914703 0.344590 0.563497 14.926585 19.719443 160.481837 11.840305 -7.394694 -44.410893 -1.451795 -6.023115 76.704197 -0.835270 16.415170 -37.545851 0.000000 -0.000000 0.000000 -11.589618 -7.235593 -69.376552 -9.902732 -12.871415 96.983509 -0.946305 -20.179899 -22.715067 0.000000 -0.000000 0.000000 5.381899 -2.710152 64.277326 2.130248 2.623974 -15.379676 7.776806 1.612642 -1.379707 -6.353631 10.022727 -18.536884 2.371740 3.825783 -20.538656 9.208670 -29.181635 -18.468761 -13.948285 -24.551849 -14.223567 131.485605 -63.668884 -90.378244 17.140574 -14.851642 21.806797 0.448172 35.539197 -10.202903 25.878767 28.469430 -3.736008 -78.556472 70.778854 -47.564978 -38.672771 24.258633 14.431151 
2.010292 0.293226 0.512612 11.993759 34.136349 164.213354 9.691001 -7.285279 -39.383901 1.686134 -4.283104 72.945668 1.215298 16.094128 -35.501732 0.000000 -0.000000 0.000000 -9.699141 -7.810674 -65.209867 -10.863358 -13.436614 91.455478 -0.085414 -17.230463 -22.190714 0.000000 -0.000000 0.000000 5.666796 -0.090685 63.219221 0.019000 5.842236 -15.972518 8.285639 4.177035 -1.315212 -4.426101 6.679665 -14.788384 4.573660 4.426244 -20.431829 5.143800 -22.294164 -18.604025 -33.757619 -30.106234 -2.857296 163.403916 -61.070915 -115.978986 13.647481 -11.226292 15.267479 1.485978 32.037921 -7.563756 26.938246 26.926107 -4.375686 -78.644424 73.406132 -46.853026 -38.738251 26.167451 12.319336 
2.102896 0.245554 0.448980 9.578557 46.955557 167.241499 7.096779 -7.476766 -36.101981 2.698276 -2.851292 68.369430 1.923073 12.206084 -32.494188 0.000000 -0.000000 0.000000 -12.151260 -11.212213 -62.543186 -11.817688 -14.242185 88.681119 0.753786 -14.235929 -20.684035 0.000000 -0.000000 0.000000 9.193246 0.931547 59.691503 -1.341002 8.317070 -16.006293 7.571979 4.686959 -0.072066 -3.035978 2.880497 -9.511333 4.636107 2.825244 -16.958040 -0.217026 -21.461374 -12.828724 -55.565777 -28.630500 7.847291 178.093248 -61.639685 -120.947143 25.467806 -30.137910 2.431694 1.329935 30.780227 -5.455115 26.628428 25.116230 -5.942046 -62.837954 74.181760 -30.476563 -43.165407 30.530896 5.088930 
2.183905 0.205370 0.384947 8.600319 59.890570 171.802195 6.984845 -6.026052 -35.897104 -0.156002 0.055053 63.278722 0.273994 7.919210 -29.803705 0.000000 -0.000000 0.000000 -14.454957 -14.085029 -64.059266 -12.770916 -15.092389 88.970565 0.962335 -11.413365 -18.543005 0.000000 -0.000000 0.000000 11.586908 3.010097 52.461474 -0.728100 9.826773 -11.851815 8.608733 5.196331 0.607796 -3.947542 -3.339137 -2.665556 7.155259 1.424882 -15.549923 -3.082953 -23.677617 -11.935181 -76.217222 -24.387697 16.734164 -176.651861 -67.200221 -132.102488 34.395702 -32.413343 -5.650085 -0.884286 30.422096 -7.211979 28.182326 23.286955 -4.373215 -44.773478 74.453072 -14.821855 -40.378730 30.305211 9.118541 
2.252694 0.160334 0.324870 8.472448 73.636131 173.694723 6.390288 -1.925145 -31.656333 -0.011666 5.596757 54.029948 -2.185322 6.181100 -26.170998 0.000000 -0.000000 0.000000 -16.071814 -15.049365 -63.636753 -13.702843 -14.950196 90.389167 1.699599 -7.715751 -16.718812 0.000000 -0.000000 0.000000 8.391586 4.777505 51.961732 1.895046 8.807386 -7.025075 10.648825 5.558993 -1.353512 -3.219615 -2.835608 3.380066 8.545272 2.030052 -16.318834 -6.038809 -25.886015 -10.420135 -87.843618 -18.461062 17.776271 175.998077 -68.894300 -129.158292 47.803094 -35.931601 -3.367280 -4.025371 31.339432 -12.378476 35.760887 23.562845 1.786308 -38.995483 75.427198 -10.529756 -28.617656 27.622963 20.745473 
